name rise35.5848peak51.9257fall54.8793.mot
datacolumns 19
datarows 37
range 18.749920 18.809921
endheader
time	ground_force1_vx	ground_force1_vy	ground_force1_vz	ground_force1_px	ground_force1_py	ground_force1_pz	ground_force2_vx	ground_force2_vy	ground_force2_vz	ground_force2_px	ground_force2_py	ground_force2_pz	ground_torque1_x	ground_torque1_y	ground_torque1_z	ground_torque2_x	ground_torque2_y	ground_torque2_z	
18.749920	5.725380	204.200296	-16.654370	0.334949	0.000000	0.115187	-68.389108	689.012167	-25.761416	0.067267	0.000000	-0.063933	0.000000	-13.746845	0.000000	0.000000	-13.526218	0.000000	
18.751590	7.163662	212.181905	-16.017341	0.336583	0.000000	0.115474	-68.706765	683.292148	-25.033278	0.066966	0.000000	-0.063773	0.000000	-13.657226	0.000000	0.000000	-13.452607	0.000000	
18.753257	8.658059	220.237368	-15.316734	0.338164	0.000000	0.115750	-69.016698	677.408098	-24.297460	0.066679	0.000000	-0.063608	0.000000	-13.533499	0.000000	0.000000	-13.378111	0.000000	
18.754923	10.207325	228.355744	-14.551591	0.339690	0.000000	0.116017	-69.317146	671.358804	-23.554332	0.066407	0.000000	-0.063439	0.000000	-13.374525	0.000000	0.000000	-13.302489	0.000000	
18.756596	11.809263	236.528380	-13.722119	0.341160	0.000000	0.116274	-69.606280	665.143290	-22.804290	0.066149	0.000000	-0.063264	0.000000	-13.179830	0.000000	0.000000	-13.225498	0.000000	
18.758255	13.460856	244.748727	-12.829568	0.342574	0.000000	0.116522	-69.882213	658.760826	-22.047759	0.065905	0.000000	-0.063086	0.000000	-12.949546	0.000000	0.000000	-13.146892	0.000000	
18.759924	15.158408	253.012036	-11.876052	0.343928	0.000000	0.116761	-70.143002	652.210941	-21.285196	0.065675	0.000000	-0.062902	0.000000	-12.684323	0.000000	0.000000	-13.066423	0.000000	
18.761595	16.897719	261.314977	-10.864360	0.345222	0.000000	0.116991	-70.386653	645.493435	-20.517088	0.065458	0.000000	-0.062714	0.000000	-12.385225	0.000000	0.000000	-12.983844	0.000000	
18.763254	18.674237	269.655236	-9.797763	0.346455	0.000000	0.117213	-70.611134	638.608384	-19.743954	0.065253	0.000000	-0.062522	0.000000	-12.053629	0.000000	0.000000	-12.898911	0.000000	
18.764919	20.483218	278.031119	-8.679831	0.347624	0.000000	0.117428	-70.814376	631.556146	-18.966348	0.065061	0.000000	-0.062325	0.000000	-11.691118	0.000000	0.000000	-12.811379	0.000000	
18.766587	22.319848	286.441184	-7.514270	0.348729	0.000000	0.117634	-70.994286	624.337366	-18.184856	0.064879	0.000000	-0.062123	0.000000	-11.299394	0.000000	0.000000	-12.721011	0.000000	
18.768254	24.179349	294.883950	-6.304801	0.349767	0.000000	0.117834	-71.148752	616.952976	-17.400104	0.064708	0.000000	-0.061917	0.000000	-10.880205	0.000000	0.000000	-12.627572	0.000000	
18.769921	26.057062	303.357658	-5.055058	0.350738	0.000000	0.118026	-71.275655	609.404193	-16.612753	0.064547	0.000000	-0.061707	0.000000	-10.435287	0.000000	0.000000	-12.530836	0.000000	
18.771588	27.948487	311.860116	-3.768526	0.351640	0.000000	0.118211	-71.372878	601.692525	-15.823503	0.064394	0.000000	-0.061492	0.000000	-9.966326	0.000000	0.000000	-12.430586	0.000000	
18.773259	29.849321	320.388616	-2.448509	0.352471	0.000000	0.118389	-71.438316	593.819766	-15.033093	0.064248	0.000000	-0.061273	0.000000	-9.474935	0.000000	0.000000	-12.326612	0.000000	
18.774925	31.755455	328.939912	-1.098124	0.353232	0.000000	0.118561	-71.469890	585.788001	-14.242301	0.064109	0.000000	-0.061050	0.000000	-8.962652	0.000000	0.000000	-12.218718	0.000000	
18.776588	33.662970	337.510252	0.279686	0.353919	0.000000	0.118726	-71.465553	577.599611	-13.451943	0.063974	0.000000	-0.060823	0.000000	-8.430943	0.000000	0.000000	-12.106718	0.000000	
18.778255	35.568117	346.095449	1.682125	0.354534	0.000000	0.118885	-71.423307	569.257279	-12.662874	0.063843	0.000000	-0.060592	0.000000	-7.881216	0.000000	0.000000	-11.990442	0.000000	
18.779928	37.467287	354.690985	3.106507	0.355074	0.000000	0.119038	-71.341212	560.764002	-11.875982	0.063714	0.000000	-0.060357	0.000000	-7.314844	0.000000	0.000000	-11.869735	0.000000	
18.781592	39.356990	363.292122	4.550216	0.355539	0.000000	0.119185	-71.217399	552.123112	-11.092187	0.063586	0.000000	-0.060119	0.000000	-6.733179	0.000000	0.000000	-11.744458	0.000000	
18.783256	41.233820	371.894015	6.010668	0.355929	0.000000	0.119326	-71.050079	543.338294	-10.312436	0.063458	0.000000	-0.059877	0.000000	-6.137581	0.000000	0.000000	-11.614491	0.000000	
18.784925	43.094442	380.491828	7.485278	0.356243	0.000000	0.119461	-70.837554	534.413615	-9.537699	0.063326	0.000000	-0.059632	0.000000	-5.529428	0.000000	0.000000	-11.479729	0.000000	
18.786591	44.935570	389.080820	8.971438	0.356482	0.000000	0.119591	-70.578231	525.353550	-8.768957	0.063191	0.000000	-0.059383	0.000000	-4.910136	0.000000	0.000000	-11.340089	0.000000	
18.788269	46.753963	397.656430	10.466495	0.356645	0.000000	0.119715	-70.270621	516.163014	-8.007202	0.063050	0.000000	-0.059131	0.000000	-4.281160	0.000000	0.000000	-11.195507	0.000000	
18.789921	48.546418	406.214324	11.967748	0.356733	0.000000	0.119833	-69.913359	506.847393	-7.253423	0.062901	0.000000	-0.058877	0.000000	-3.644005	0.000000	0.000000	-11.045938	0.000000	
18.791587	50.309779	414.750433	13.472444	0.356745	0.000000	0.119946	-69.505196	497.412561	-6.508603	0.062743	0.000000	-0.058619	0.000000	-3.000214	0.000000	0.000000	-10.891356	0.000000	
18.793254	52.040946	423.260966	14.977797	0.356683	0.000000	0.120054	-69.045018	487.864904	-5.773706	0.062574	0.000000	-0.058359	0.000000	-2.351367	0.000000	0.000000	-10.731756	0.000000	
18.794928	53.736892	431.742406	16.480992	0.356548	0.000000	0.120157	-68.531839	478.211320	-5.049677	0.062391	0.000000	-0.058097	0.000000	-1.699069	0.000000	0.000000	-10.567150	0.000000	
18.796586	55.394676	440.191493	17.979214	0.356339	0.000000	0.120255	-67.964808	468.459202	-4.337431	0.062193	0.000000	-0.057832	0.000000	-1.044933	0.000000	0.000000	-10.397570	0.000000	
18.798253	57.011468	448.605195	19.469667	0.356059	0.000000	0.120348	-67.343213	458.616415	-3.637855	0.061978	0.000000	-0.057565	0.000000	-0.390566	0.000000	0.000000	-10.223064	0.000000	
18.799927	58.584566	456.980675	20.949598	0.355709	0.000000	0.120435	-66.666481	448.691235	-2.951806	0.061744	0.000000	-0.057296	0.000000	0.262445	0.000000	0.000000	-10.043698	0.000000	
18.801588	60.111415	465.315250	22.416323	0.355291	0.000000	0.120518	-65.934181	438.692276	-2.280115	0.061489	0.000000	-0.057025	0.000000	0.912554	0.000000	0.000000	-9.859553	0.000000	
18.803261	61.589628	473.606360	23.867248	0.354805	0.000000	0.120596	-65.146029	428.628389	-1.623591	0.061211	0.000000	-0.056752	0.000000	1.558267	0.000000	0.000000	-9.670729	0.000000	
18.804932	63.016994	481.851527	25.299891	0.354255	0.000000	0.120670	-64.301893	418.508543	-0.983032	0.060907	0.000000	-0.056478	0.000000	2.198158	0.000000	0.000000	-9.477338	0.000000	
18.806590	64.391499	490.048329	26.711896	0.353641	0.000000	0.120738	-63.401801	408.341695	-0.359238	0.060576	0.000000	-0.056202	0.000000	2.830877	0.000000	0.000000	-9.279512	0.000000	
18.808259	65.711326	498.194371	28.101050	0.352967	0.000000	0.120802	-62.445953	398.136648	0.246980	0.060216	0.000000	-0.055925	0.000000	3.455166	0.000000	0.000000	-9.077396	0.000000	
18.809921	66.974869	506.287267	29.465291	0.352234	0.000000	0.120862	-61.434731	387.901917	0.834783	0.059824	0.000000	-0.055647	0.000000	4.069857	0.000000	0.000000	-8.871155	0.000000	
